<?xml version="1.0" encoding="UTF-8" standalone="no"?>
<!DOCTYPE svg PUBLIC "-//W3C//DTD SVG 1.1//EN" "http://www.w3.org/Graphics/SVG/1.1/DTD/svg11.dtd">
<svg width="1457" height="1130" viewBox="0 0 1457 1130" fill="none" xmlns="http://www.w3.org/2000/svg">
	<path d="M1278.84 614.429C1282.24 589.94 1284 564.925 1284 539.5C1284 241.542 1042.46 0 744.5 0C488.613 0 274.335 178.148 218.925 417.183L220.019 416.94C228.727 389.745 270.053 329.482 342 305.5C432 275.5 592 327 671 413.5C669.333 365.167 676.6 252.1 719 186.5C772 104.5 836.5 41.4999 979 79.9999V88C949.333 98.1667 887.5 124.3 877.5 147.5L911 142.5L915.5 151C873.5 180 786.5 258.6 774.5 341C788.333 332.667 818.8 316.7 830 319.5C830.833 323 826.7 336.4 803.5 362C780.3 387.6 777.167 410.667 778.5 419C809.833 383.667 892.4 310.4 972 300C1071.5 287 1196.5 308.5 1230 419H1220C1191.67 391 1110.8 349.7 1014 408.5C1029.67 404.833 1064.5 406.1 1078.5 440.5L1072.5 447C1045.17 437 972.2 423 899 447C915.5 452 965.7 463.1 1034.5 467.5C1103.3 471.9 1171.17 505 1196.5 521C1217.91 536.688 1262.13 576.797 1271.01 613.798C1273.65 613.98 1276.26 614.19 1278.84 614.429Z" fill="white"/>
	<path d="M205 539.5C205 501.554 208.918 464.522 216.37 428.789C357.95 388.572 425.015 403.951 441 417C417 423 394 438.167 385.5 445L390 453.5C432 440.3 552.167 459 607 470C580.601 482.523 563.594 483.361 509.922 486.008H509.92C484.303 487.271 450.331 488.946 403 492.5C296.389 500.505 231.069 543.594 205.834 569.756C205.28 559.741 205 549.653 205 539.5Z" fill="white"/>
	<path d="M968.5 577C1027.18 566.4 1097.35 601.542 1129.85 623.423C1084.18 630.648 1031.95 641.458 971.594 655.42C957.866 639.147 931.604 617.11 916 605C942.4 604.6 980.667 626.167 996.5 637L1004 632.5C1000.4 608.9 976.833 591.667 965.5 586L968.5 577Z" fill="white"/>
	<path d="M755.5 618.5C794.266 617.423 825.999 659.481 840.656 687.154C814.311 693.74 786.734 700.711 757.846 708.048L755.5 618.5Z" fill="white"/>
	<path d="M708 639L710.788 719.859C671.188 729.298 633.388 736.377 597.501 741.476C627.65 673.08 682.971 644.703 708 639Z" fill="white"/>
	<path d="M596.5 601.5C521.361 641.488 476.706 707.778 456.195 752.319C361.885 753.057 287.81 739.799 237.434 724.168C231.049 706.641 225.547 688.689 220.981 670.367L256.5 649V696C350.5 603.6 449.667 579.833 487.5 579.5C454.3 605.9 450.333 630.167 452.5 639C528.5 614.2 580.167 603.667 596.5 601.5Z" fill="white"/>
	<path d="M0 590C79 780 215.253 1006.05 803.5 865.5C1395 724.168 1400.6 885.978 1340.65 1017.08L1340 1018.5C1408.17 953.667 1518 802.5 1412 716.5C1306 630.5 1100 685 765.5 777C570.167 838.667 143.6 887.6 0 590Z" fill="white"/>
	<path d="M52 727.5C117.106 884.023 292.396 1119.75 777.19 1003.96C1264.66 887.528 1269.28 1020.83 1219.87 1128.83L1219.34 1130L1221.46 1127.98C1278.32 1073.95 1388.27 969.465 1302 899.5C1214.64 828.653 964 878 745.873 931.051C471.479 997.788 222.5 993 52 727.5Z" fill="white"/>
</svg>
